<svg xmlns="http://www.w3.org/2000/svg" viewBox="0 0 500.25 500.25"><defs><style>.cls-1{fill:#99d0ff;}.cls-1,.cls-10,.cls-11,.cls-12,.cls-13,.cls-2,.cls-3,.cls-4,.cls-5,.cls-6,.cls-7,.cls-8,.cls-9{stroke:#000;stroke-miterlimit:10;stroke-width:0.25px;}.cls-2{fill:#cebc63;}.cls-3{fill:#fff;}.cls-4{fill:#bfbfbf;}.cls-5{fill:none;}.cls-6{fill:#2c2c2d;}.cls-8{fill:#404040;}.cls-9{fill:gray;}.cls-10{fill:#ddcab8;}.cls-11{fill:#59595b;}.cls-12{fill:#4e4e4f;}.cls-13{fill:#dcdcdc;}</style></defs><title>ikon</title><g id="Lag_2" data-name="Lag 2"><path class="cls-1" d="M345,331.38l-128,54c-2,.57-3.72-.35-5-3l-31-76c-1.27-3-.71-5.08,2-6l126-52c3.14-1.37,5.39-.49,7,2l31,75C348.61,328.52,347.87,330.46,345,331.38Z" transform="translate(-0.38 0.24)"/><path class="cls-1" d="M169.07,429.78,154.88,436a1.32,1.32,0,0,1-1.74-.68l-6.08-13.91a1,1,0,0,1,.5-1.26l14.22-6.2a1.33,1.33,0,0,1,1.75.69l6.06,13.85A1,1,0,0,1,169.07,429.78Z" transform="translate(-0.38 0.24)"/><path class="cls-1" d="M188.07,421.78,173.88,428a1.32,1.32,0,0,1-1.74-.68l-6.08-13.91a1,1,0,0,1,.5-1.26l14.22-6.2a1.33,1.33,0,0,1,1.75.69l6.06,13.85A1,1,0,0,1,188.07,421.78Z" transform="translate(-0.38 0.24)"/><path class="cls-1" d="M181.33,490.18q-3.53-1-7-2.12Z" transform="translate(-0.38 0.24)"/><path class="cls-1" d="M199.07,460.78,184.88,467a1.32,1.32,0,0,1-1.74-.68l-6.08-13.91a1,1,0,0,1,.5-1.26l14.22-6.2a1.33,1.33,0,0,1,1.75.69l6.06,13.85A1,1,0,0,1,199.07,460.78Z" transform="translate(-0.38 0.24)"/><path class="cls-1" d="M199.23,439.53l-35.82,14.85A2.66,2.66,0,0,1,160,453l-5-11.34a2.49,2.49,0,0,1,1.28-3.27l36.59-16.06a2.27,2.27,0,0,1,3,1.22l5,12.07A3,3,0,0,1,199.23,439.53Z" transform="translate(-0.38 0.24)"/><path class="cls-1" d="M207.07,413.78,192.88,420a1.32,1.32,0,0,1-1.74-.68l-6.08-13.91a1,1,0,0,1,.5-1.26l14.22-6.2a1.33,1.33,0,0,1,1.75.69l6.06,13.85A1,1,0,0,1,207.07,413.78Z" transform="translate(-0.38 0.24)"/><path class="cls-1" d="M209.68,496.57q-11.88-2-23.36-5l16.25-6.64a1.58,1.58,0,0,1,2,.74Z" transform="translate(-0.38 0.24)"/><path class="cls-1" d="M218.07,452.78,203.88,459a1.32,1.32,0,0,1-1.74-.68l-6.08-13.91a1,1,0,0,1,.5-1.26l14.22-6.2a1.33,1.33,0,0,1,1.75.69l6.06,13.85A1,1,0,0,1,218.07,452.78Z" transform="translate(-0.38 0.24)"/><path class="cls-1" d="M220.07,429.78,205.88,436a1.32,1.32,0,0,1-1.74-.68l-6.08-13.91a1,1,0,0,1,.5-1.26l14.22-6.2a1.33,1.33,0,0,1,1.75.69l6.06,13.85A1,1,0,0,1,220.07,429.78Z" transform="translate(-0.38 0.24)"/><path class="cls-1" d="M226.07,405.78,211.88,412a1.32,1.32,0,0,1-1.74-.68l-6.08-13.91a1,1,0,0,1,.5-1.26l14.22-6.2a1.33,1.33,0,0,1,1.75.69l6.06,13.85A1,1,0,0,1,226.07,405.78Z" transform="translate(-0.38 0.24)"/><path class="cls-1" d="M229.07,491.78l-13.14,5.72c-1-.12-1.92-.26-2.87-.41l-6-13.72a1,1,0,0,1,.5-1.26l14.22-6.2a1.33,1.33,0,0,1,1.75.69l6.06,13.85A1,1,0,0,1,229.07,491.78Z" transform="translate(-0.38 0.24)"/><path class="cls-1" d="M237.07,444.78,222.88,451a1.32,1.32,0,0,1-1.74-.68l-6.08-13.91a1,1,0,0,1,.5-1.26l14.22-6.2a1.33,1.33,0,0,1,1.75.69l6.06,13.85A1,1,0,0,1,237.07,444.78Z" transform="translate(-0.38 0.24)"/><path class="cls-1" d="M239.07,421.78,224.88,428a1.32,1.32,0,0,1-1.74-.68l-6.08-13.91a1,1,0,0,1,.5-1.26l14.22-6.2a1.33,1.33,0,0,1,1.75.69l6.06,13.85A1,1,0,0,1,239.07,421.78Z" transform="translate(-0.38 0.24)"/><path class="cls-1" d="M241.51,497.89l-4.7,1.61h-.29c-4.06-.23-8.06-.53-12.06-1l-.51,0c-.35-.67.06-1.37,1.05-2.1L238.44,491a1.73,1.73,0,0,1,2.22.93l1.72,4A1.47,1.47,0,0,1,241.51,497.89Z" transform="translate(-0.38 0.24)"/><path class="cls-1" d="M248.07,483.78,233.88,490a1.32,1.32,0,0,1-1.74-.68l-6.08-13.91a1,1,0,0,1,.5-1.26l14.22-6.2a1.33,1.33,0,0,1,1.75.69l6.06,13.85A1,1,0,0,1,248.07,483.78Z" transform="translate(-0.38 0.24)"/><path class="cls-1" d="M248.94,396.48l-16.88,7.13c-1.12.46-3.37-.92-3.82-2l-4.37-10.94a2.23,2.23,0,0,1,1.19-2.88l17-7.28a2.36,2.36,0,0,1,3,1.14l5,11.93A2.18,2.18,0,0,1,248.94,396.48Z" transform="translate(-0.38 0.24)"/><path class="cls-1" d="M257.07,435.78,242.88,442a1.32,1.32,0,0,1-1.74-.68l-6.08-13.91a1,1,0,0,1,.5-1.26l14.22-6.2a1.33,1.33,0,0,1,1.75.69l6.06,13.85A1,1,0,0,1,257.07,435.78Z" transform="translate(-0.38 0.24)"/><path class="cls-1" d="M258.07,413.78,243.88,420a1.32,1.32,0,0,1-1.74-.68l-6.08-13.91a1,1,0,0,1,.5-1.26l14.22-6.2a1.33,1.33,0,0,1,1.75.69l6.06,13.85A1,1,0,0,1,258.07,413.78Z" transform="translate(-0.38 0.24)"/><path class="cls-1" d="M260.43,490l-13.83,5.69a1.75,1.75,0,0,1-2.28-.93l-1.57-3.65a1.9,1.9,0,0,1,1-2.49L257.43,483a1.73,1.73,0,0,1,2.24.91l1.66,3.88A1.68,1.68,0,0,1,260.43,490Z" transform="translate(-0.38 0.24)"/><path class="cls-1" d="M267.07,475.78,252.88,482a1.32,1.32,0,0,1-1.74-.68l-6.08-13.91a1,1,0,0,1,.5-1.26l14.22-6.2a1.33,1.33,0,0,1,1.75.69l6.06,13.85A1,1,0,0,1,267.07,475.78Z" transform="translate(-0.38 0.24)"/><path class="cls-1" d="M275.07,427.78,260.88,434a1.32,1.32,0,0,1-1.74-.68l-6.08-13.91a1,1,0,0,1,.5-1.26l14.22-6.2a1.33,1.33,0,0,1,1.75.69l6.06,13.85A1,1,0,0,1,275.07,427.78Z" transform="translate(-0.38 0.24)"/><path class="cls-1" d="M276.07,405.78,261.88,412a1.32,1.32,0,0,1-1.74-.68l-6.08-13.91a1,1,0,0,1,.5-1.26l14.22-6.2a1.33,1.33,0,0,1,1.75.69l6.06,13.85A1,1,0,0,1,276.07,405.78Z" transform="translate(-0.38 0.24)"/><path class="cls-1" d="M279.43,482l-13.83,5.69a1.75,1.75,0,0,1-2.28-.93l-1.57-3.65a1.9,1.9,0,0,1,1-2.49L276.43,475a1.73,1.73,0,0,1,2.24.91l1.66,3.88A1.68,1.68,0,0,1,279.43,482Z" transform="translate(-0.38 0.24)"/><path class="cls-1" d="M286.07,467.78,271.88,474a1.32,1.32,0,0,1-1.74-.68l-6.08-13.91a1,1,0,0,1,.5-1.26l14.22-6.2a1.33,1.33,0,0,1,1.75.69l6.06,13.85A1,1,0,0,1,286.07,467.78Z" transform="translate(-0.38 0.24)"/><path class="cls-1" d="M294.07,419.78,279.88,426a1.32,1.32,0,0,1-1.74-.68l-6.08-13.91a1,1,0,0,1,.5-1.26l14.22-6.2a1.33,1.33,0,0,1,1.75.69l6.06,13.85A1,1,0,0,1,294.07,419.78Z" transform="translate(-0.38 0.24)"/><path class="cls-1" d="M295.07,397.78,280.88,404a1.32,1.32,0,0,1-1.74-.68l-6.08-13.91a1,1,0,0,1,.5-1.26l14.22-6.2a1.33,1.33,0,0,1,1.75.69l6.06,13.85A1,1,0,0,1,295.07,397.78Z" transform="translate(-0.38 0.24)"/><path class="cls-1" d="M298.43,474l-13.83,5.69a1.75,1.75,0,0,1-2.28-.93l-1.57-3.65a1.9,1.9,0,0,1,1-2.49L295.43,467a1.73,1.73,0,0,1,2.24.91l1.66,3.88A1.68,1.68,0,0,1,298.43,474Z" transform="translate(-0.38 0.24)"/><path class="cls-1" d="M305.07,459.78,290.88,466a1.32,1.32,0,0,1-1.74-.68l-6.08-13.91a1,1,0,0,1,.5-1.26l14.22-6.2a1.33,1.33,0,0,1,1.75.69l6.06,13.85A1,1,0,0,1,305.07,459.78Z" transform="translate(-0.38 0.24)"/><path class="cls-1" d="M313.07,412.78,298.88,419a1.32,1.32,0,0,1-1.74-.68l-6.08-13.91a1,1,0,0,1,.5-1.26l14.22-6.2a1.33,1.33,0,0,1,1.75.69l6.06,13.85A1,1,0,0,1,313.07,412.78Z" transform="translate(-0.38 0.24)"/><path class="cls-1" d="M314.07,390.78,299.88,397a1.32,1.32,0,0,1-1.74-.68l-6.08-13.91a1,1,0,0,1,.5-1.26l14.22-6.2a1.33,1.33,0,0,1,1.75.69l6.06,13.85A1,1,0,0,1,314.07,390.78Z" transform="translate(-0.38 0.24)"/><path class="cls-1" d="M317.43,466l-13.83,5.69a1.75,1.75,0,0,1-2.28-.93l-1.57-3.65a1.9,1.9,0,0,1,1-2.49L314.43,459a1.73,1.73,0,0,1,2.24.91l1.66,3.88A1.68,1.68,0,0,1,317.43,466Z" transform="translate(-0.38 0.24)"/><path class="cls-1" d="M324.07,452.78,309.88,459a1.32,1.32,0,0,1-1.74-.68l-6.08-13.91a1,1,0,0,1,.5-1.26l14.22-6.2a1.33,1.33,0,0,1,1.75.69l6.06,13.85A1,1,0,0,1,324.07,452.78Z" transform="translate(-0.38 0.24)"/><path class="cls-1" d="M332.07,404.78,317.88,411a1.32,1.32,0,0,1-1.74-.68l-6.08-13.91a1,1,0,0,1,.5-1.26l14.22-6.2a1.33,1.33,0,0,1,1.75.69l6.06,13.85A1,1,0,0,1,332.07,404.78Z" transform="translate(-0.38 0.24)"/><path class="cls-1" d="M333.07,382.78,318.88,389a1.32,1.32,0,0,1-1.74-.68l-6.08-13.91a1,1,0,0,1,.5-1.26l14.22-6.2a1.33,1.33,0,0,1,1.75.69l6.06,13.85A1,1,0,0,1,333.07,382.78Z" transform="translate(-0.38 0.24)"/><path class="cls-1" d="M336.43,458l-13.83,5.69a1.75,1.75,0,0,1-2.28-.93l-1.57-3.65a1.9,1.9,0,0,1,1-2.49L333.43,451a1.73,1.73,0,0,1,2.24.91l1.66,3.88A1.68,1.68,0,0,1,336.43,458Z" transform="translate(-0.38 0.24)"/><path class="cls-1" d="M343.07,444.78,328.88,451a1.32,1.32,0,0,1-1.74-.68l-6.08-13.91a1,1,0,0,1,.5-1.26l14.22-6.2a1.33,1.33,0,0,1,1.75.69l6.06,13.85A1,1,0,0,1,343.07,444.78Z" transform="translate(-0.38 0.24)"/><path class="cls-1" d="M344.36,356.07l-89.59,37.57a1.89,1.89,0,0,1-2.49-1l-5.29-13a1.77,1.77,0,0,1,1-2.3L337,340.2a2.16,2.16,0,0,1,2.82,1.13l5.44,12.42A1.76,1.76,0,0,1,344.36,356.07Z" transform="translate(-0.38 0.24)"/><path class="cls-1" d="M351.07,397.78,336.88,404a1.32,1.32,0,0,1-1.74-.68l-6.08-13.91a1,1,0,0,1,.5-1.26l14.22-6.2a1.33,1.33,0,0,1,1.75.69l6.06,13.85A1,1,0,0,1,351.07,397.78Z" transform="translate(-0.38 0.24)"/><path class="cls-1" d="M352.07,375.78,337.88,382a1.32,1.32,0,0,1-1.74-.68l-6.08-13.91a1,1,0,0,1,.5-1.26l14.22-6.2a1.33,1.33,0,0,1,1.75.69l6.06,13.85A1,1,0,0,1,352.07,375.78Z" transform="translate(-0.38 0.24)"/><path class="cls-1" d="M355.43,450l-13.83,5.69a1.75,1.75,0,0,1-2.28-.93l-1.57-3.65a1.9,1.9,0,0,1,1-2.49L352.43,443a1.73,1.73,0,0,1,2.24.91l1.66,3.88A1.68,1.68,0,0,1,355.43,450Z" transform="translate(-0.38 0.24)"/><path class="cls-1" d="M362.07,436.78,347.88,443a1.32,1.32,0,0,1-1.74-.68l-6.08-13.91a1,1,0,0,1,.5-1.26l14.22-6.2a1.33,1.33,0,0,1,1.75.69l6.06,13.85A1,1,0,0,1,362.07,436.78Z" transform="translate(-0.38 0.24)"/><path class="cls-1" d="M366.88,347.25,350,354.38c-1.12.46-3.37-.92-3.82-2l-4.37-10.94a2.24,2.24,0,0,1,1.19-2.88l17-7.28a2.36,2.36,0,0,1,3,1.14l5,11.93A2.18,2.18,0,0,1,366.88,347.25Z" transform="translate(-0.38 0.24)"/><path class="cls-1" d="M370.07,389.78,355.88,396a1.32,1.32,0,0,1-1.74-.68l-6.08-13.91a1,1,0,0,1,.5-1.26l14.22-6.2a1.33,1.33,0,0,1,1.75.69l6.06,13.85A1,1,0,0,1,370.07,389.78Z" transform="translate(-0.38 0.24)"/><path class="cls-1" d="M371.07,367.78,356.88,374a1.32,1.32,0,0,1-1.74-.68l-6.08-13.91a1,1,0,0,1,.5-1.26l14.22-6.2a1.33,1.33,0,0,1,1.75.69l6.06,13.85A1,1,0,0,1,371.07,367.78Z" transform="translate(-0.38 0.24)"/><path class="cls-1" d="M374.43,442l-13.83,5.69a1.75,1.75,0,0,1-2.28-.93l-1.57-3.65a1.9,1.9,0,0,1,1-2.49L371.43,435a1.73,1.73,0,0,1,2.24.91l1.66,3.88A1.68,1.68,0,0,1,374.43,442Z" transform="translate(-0.38 0.24)"/><path class="cls-1" d="M381.07,428.78,366.88,435a1.32,1.32,0,0,1-1.74-.68l-6.08-13.91a1,1,0,0,1,.5-1.26l14.22-6.2a1.33,1.33,0,0,1,1.75.69l6.06,13.85A1,1,0,0,1,381.07,428.78Z" transform="translate(-0.38 0.24)"/><path class="cls-1" d="M387.07,338.78,372.88,345a1.32,1.32,0,0,1-1.74-.68l-6.08-13.91a1,1,0,0,1,.5-1.26l14.22-6.2a1.33,1.33,0,0,1,1.75.69l6.06,13.85A1,1,0,0,1,387.07,338.78Z" transform="translate(-0.38 0.24)"/><path class="cls-1" d="M389.07,381.78,374.88,388a1.32,1.32,0,0,1-1.74-.68l-6.08-13.91a1,1,0,0,1,.5-1.26l14.22-6.2a1.33,1.33,0,0,1,1.75.69l6.06,13.85A1,1,0,0,1,389.07,381.78Z" transform="translate(-0.38 0.24)"/><path class="cls-1" d="M390.07,359.78,375.88,366a1.32,1.32,0,0,1-1.74-.68l-6.08-13.91a1,1,0,0,1,.5-1.26l14.22-6.2a1.33,1.33,0,0,1,1.75.69l6.06,13.85A1,1,0,0,1,390.07,359.78Z" transform="translate(-0.38 0.24)"/><path class="cls-1" d="M393.43,434l-13.83,5.69a1.75,1.75,0,0,1-2.28-.93l-1.57-3.65a1.9,1.9,0,0,1,1-2.49L390.43,427a1.73,1.73,0,0,1,2.24.91l1.66,3.88A1.68,1.68,0,0,1,393.43,434Z" transform="translate(-0.38 0.24)"/><path class="cls-1" d="M400.07,420.78,385.88,427a1.32,1.32,0,0,1-1.74-.68l-6.08-13.91a1,1,0,0,1,.5-1.26l14.22-6.2a1.33,1.33,0,0,1,1.75.69l6.06,13.85A1,1,0,0,1,400.07,420.78Z" transform="translate(-0.38 0.24)"/><path class="cls-1" d="M406.07,330.78,391.88,337a1.32,1.32,0,0,1-1.74-.68l-6.08-13.91a1,1,0,0,1,.5-1.26l14.22-6.2a1.33,1.33,0,0,1,1.75.69l6.06,13.85A1,1,0,0,1,406.07,330.78Z" transform="translate(-0.38 0.24)"/><path class="cls-1" d="M408.07,373.78,393.88,380a1.32,1.32,0,0,1-1.74-.68l-6.08-13.91a1,1,0,0,1,.5-1.26l14.22-6.2a1.33,1.33,0,0,1,1.75.69l6.06,13.85A1,1,0,0,1,408.07,373.78Z" transform="translate(-0.38 0.24)"/><path class="cls-1" d="M409.07,351.78,394.88,358a1.32,1.32,0,0,1-1.74-.68l-6.08-13.91a1,1,0,0,1,.5-1.26l14.22-6.2a1.33,1.33,0,0,1,1.75.69l6.06,13.85A1,1,0,0,1,409.07,351.78Z" transform="translate(-0.38 0.24)"/><path class="cls-1" d="M411.43,426l-13.83,5.69a1.75,1.75,0,0,1-2.28-.93l-1.57-3.65a1.9,1.9,0,0,1,1-2.49L408.43,419a1.73,1.73,0,0,1,2.24.91l1.66,3.88A1.68,1.68,0,0,1,411.43,426Z" transform="translate(-0.38 0.24)"/><path class="cls-1" d="M418.07,412.78,403.88,419a1.32,1.32,0,0,1-1.74-.68l-6.08-13.91a1,1,0,0,1,.5-1.26l14.22-6.2a1.33,1.33,0,0,1,1.75.69l6.06,13.85A1,1,0,0,1,418.07,412.78Z" transform="translate(-0.38 0.24)"/><path class="cls-1" d="M420.24,390.84,406.05,397a1.31,1.31,0,0,1-1.73-.68l-6.09-13.91a1,1,0,0,1,.5-1.27L413,375a1.32,1.32,0,0,1,1.75.69l6.06,13.85A1,1,0,0,1,420.24,390.84Z" transform="translate(-0.38 0.24)"/><path class="cls-1" d="M425.07,322.78,410.88,329a1.32,1.32,0,0,1-1.74-.68l-6.08-13.91a1,1,0,0,1,.5-1.26l14.22-6.2a1.33,1.33,0,0,1,1.75.69l6.06,13.85A1,1,0,0,1,425.07,322.78Z" transform="translate(-0.38 0.24)"/><path class="cls-1" d="M430.43,418l-13.83,5.69a1.75,1.75,0,0,1-2.28-.93l-1.57-3.65a1.9,1.9,0,0,1,1-2.49L427.43,411a1.73,1.73,0,0,1,2.24.91l1.66,3.88A1.68,1.68,0,0,1,430.43,418Z" transform="translate(-0.38 0.24)"/><path class="cls-1" d="M430.88,342.25,414,349.38c-1.12.46-3.37-.92-3.82-2l-4.37-10.94a2.24,2.24,0,0,1,1.19-2.88l17-7.28a2.36,2.36,0,0,1,3,1.14l5,11.93A2.18,2.18,0,0,1,430.88,342.25Z" transform="translate(-0.38 0.24)"/><path class="cls-1" d="M438.18,360.56l-25.27,10.6a3,3,0,0,1-4-1.73l-4.11-11a2.35,2.35,0,0,1,1.27-3L432,344.26a2.22,2.22,0,0,1,2.92,1.15l4.88,11.17A3,3,0,0,1,438.18,360.56Z" transform="translate(-0.38 0.24)"/><path class="cls-1" d="M446,378.38l-20.72,9a2.54,2.54,0,0,1-3.33-1.26l-5-10.68a2.26,2.26,0,0,1,1.11-3l21.61-10a2.38,2.38,0,0,1,3.22,1.32l5.1,12.61C448.42,377.51,447.11,377.89,446,378.38Z" transform="translate(-0.38 0.24)"/><path class="cls-1" d="M449.28,401.51Q444.33,408,439,414.15l0,0c-.06.08-.13.15-.19.22l-3.15,1.31a1.74,1.74,0,0,1-2.27-.91l-1.6-3.75a1.82,1.82,0,0,1,.95-2.39Z" transform="translate(-0.38 0.24)"/><path class="cls-2" d="M500.5,249.88A248.73,248.73,0,0,1,464.73,378.8L400,216.38c-2.94-6.09-8.24-8.36-17-5L268.42,259.19c.47,1.12-.06,2.18-1.42,3.19l-43,18a4.68,4.68,0,0,1-4.17-.91L105,327.38c-6.86,2.37-10.6,6.95-8,16l54.91,136.3C62.86,441.43.5,352.93.5,249.88c0-1.93,0-3.85.07-5.77L20,270.38l218-147,48-38L226.68,1Q238.44-.11,250.5-.12C388.57-.12,500.5,111.81,500.5,249.88Z" transform="translate(-0.38 0.24)"/><path class="cls-3" d="M226.68,1c-6.88.64-13.7,1.57-20.41,2.76q-5,.91-10,2A248.62,248.62,0,0,0,122,35.38h0q-4.05,2.41-8,5-8.73,5.7-16.94,12.09A251,251,0,0,0,75.18,71.65l-1.74,1.73q-6.37,6.39-12.28,13.24Q54.79,94,49,101.87A248.77,248.77,0,0,0,.57,244.11L20,270.38,45.74,253l7.14-4.81,16.78-11.32L78,231.31,94.72,220l7.14-4.81L134.74,193l7.14-4.81,25.06-16.9,7.82-5.27,10.12-6.83,6-4,8.5-5.73,16.56-11.17,7.82-5.28,7.13-4.8,7.13-4.81,17.89-14.16,3.32-2.63,8.9-7h0l2.83-2.24h0l13.21-10.46L286,85.38ZM184.5,150.38a3.49,3.49,0,0,1-1.35-6.72,3.4,3.4,0,0,1,1.35-.28,3.5,3.5,0,0,1,3.5,3.5,3.52,3.52,0,0,1-3.5,3.5Z" transform="translate(-0.38 0.24)"/><path class="cls-4" d="M400,216.38c-2.94-6.09-8.24-8.36-17-5L268.42,259.19c.47,1.12-.06,2.18-1.42,3.19l-43,18a4.68,4.68,0,0,1-4.17-.91L105,327.38c-6.86,2.37-10.6,6.95-8,16l54.91,136.3q9.94,4.27,20.34,7.7l-5.17-12.59L146,423.38c-1.48-2.86-.32-4.8,3-6l267-112c2.82-.67,4.84,0,6,2l30.51,75.36,3.73,9.2q4.45-6.42,8.49-13.14Zm-55,115-128,54c-2,.57-3.72-.35-5-3l-31-76c-1.27-3-.71-5.08,2-6l126-52c3.14-1.37,5.39-.49,7,2l31,75C348.61,328.52,347.87,330.46,345,331.38Z" transform="translate(-0.38 0.24)"/><path class="cls-4" d="M267,262.38l-43,18a4.68,4.68,0,0,1-4.17-.91l48.59-20.28C268.89,260.31,268.36,261.37,267,262.38Z" transform="translate(-0.38 0.24)"/><path class="cls-4" d="M345,331.38l-128,54c-2,.57-3.72-.35-5-3l-31-76c-1.27-3-.71-5.08,2-6l126-52c3.14-1.37,5.39-.49,7,2l31,75C348.61,328.52,347.87,330.46,345,331.38Z" transform="translate(-0.38 0.24)"/><path class="cls-4" d="M434.19,386.86,447.57,381a1.58,1.58,0,0,1,2.07.8l.72,1.62L455,393.76c.43-.6.85-1.21,1.27-1.82l-3.73-9.2L422,307.38c-1.16-2-3.18-2.67-6-2l-267,112c-3.32,1.2-4.48,3.14-3,6l21.08,51.41,5.17,12.59h0l2.09.67-5.56-13.82-6.3-15.66a1.32,1.32,0,0,1,.71-1.7l9.64-4a1.26,1.26,0,0,1,1.66.68L181.4,470l.09.19a1.46,1.46,0,0,0,1.9.55l1.52-.77a1.17,1.17,0,0,1,1.58.57l5.83,13.34a1.7,1.7,0,0,1-.86,2.24l-9.5,4.28c1.45.42,2.9.82,4.36,1.21l16.25-6.64a1.58,1.58,0,0,1,2,.74l5.09,10.91c1.12.18,2.25.36,3.38.52l-6-13.72a1,1,0,0,1,.5-1.26l14.22-6.2a1.33,1.33,0,0,1,1.75.69l6.06,13.85a1,1,0,0,1-.52,1.33l-13.14,5.72q4,.56,8,1c-.35-.67.06-1.37,1.05-2.1L238.44,491a1.73,1.73,0,0,1,2.22.93l1.72,4a1.47,1.47,0,0,1-.87,2l-4.7,1.61c1.59.09,3.17.16,4.77.22l194.47-82.29c.9-1,1.8-2,2.69-3l-3.15,1.31a1.74,1.74,0,0,1-2.27-.91l-1.6-3.75a1.82,1.82,0,0,1,.95-2.39l16.61-7.15c.93-1.21,1.84-2.42,2.74-3.65l-10.61,4.87a1.53,1.53,0,0,1-2-.77l-5.8-13.11-.11-.25A1.36,1.36,0,0,1,434.19,386.86Zm.7-41.45,4.88,11.17a3,3,0,0,1-1.59,4l-25.27,10.6a3,3,0,0,1-4-1.73l-4.11-11a2.35,2.35,0,0,1,1.27-3L432,344.26A2.22,2.22,0,0,1,434.89,345.41Zm-64.3,43a1,1,0,0,1-.52,1.33L355.88,396a1.32,1.32,0,0,1-1.74-.68l-6.08-13.91a1,1,0,0,1,.5-1.26l14.22-6.2a1.33,1.33,0,0,1,1.75.69Zm-3-16.34,14.22-6.2a1.33,1.33,0,0,1,1.75.69l6.06,13.85a1,1,0,0,1-.52,1.33L374.88,388a1.32,1.32,0,0,1-1.74-.68l-6.08-13.91A1,1,0,0,1,367.56,372.11Zm-16,24.34a1,1,0,0,1-.52,1.33L336.88,404a1.32,1.32,0,0,1-1.74-.68l-6.08-13.91a1,1,0,0,1,.5-1.26l14.22-6.2a1.33,1.33,0,0,1,1.75.69Zm-19,7a1,1,0,0,1-.52,1.33L317.88,411a1.32,1.32,0,0,1-1.74-.68l-6.08-13.91a1,1,0,0,1,.5-1.26l14.22-6.2a1.33,1.33,0,0,1,1.75.69Zm-19,8a1,1,0,0,1-.52,1.33L298.88,419a1.32,1.32,0,0,1-1.74-.68l-6.08-13.91a1,1,0,0,1,.5-1.26l14.22-6.2a1.33,1.33,0,0,1,1.75.69Zm-19,7a1,1,0,0,1-.52,1.33L279.88,426a1.32,1.32,0,0,1-1.74-.68l-6.08-13.91a1,1,0,0,1,.5-1.26l14.22-6.2a1.33,1.33,0,0,1,1.75.69Zm-19,8a1,1,0,0,1-.52,1.33L260.88,434a1.32,1.32,0,0,1-1.74-.68l-6.08-13.91a1,1,0,0,1,.5-1.26l14.22-6.2a1.33,1.33,0,0,1,1.75.69Zm-18,8a1,1,0,0,1-.52,1.33L242.88,442a1.32,1.32,0,0,1-1.74-.68l-6.08-13.91a1,1,0,0,1,.5-1.26l14.22-6.2a1.33,1.33,0,0,1,1.75.69Zm-9.86,8.71L262,437a1.32,1.32,0,0,1,1.75.69l2.29,5.23,3.77,8.62a1,1,0,0,1-.52,1.33L255.05,459a1.31,1.31,0,0,1-1.73-.68l-4.36-10-1.73-3.95A1,1,0,0,1,247.73,443.16Zm20.07-.85-2.57-5.88a1,1,0,0,1,.5-1.27L280,429a1.32,1.32,0,0,1,1.75.69l3.13,7.15,2.93,6.7a1,1,0,0,1-.52,1.33L273.05,451a1.31,1.31,0,0,1-1.73-.68ZM287.52,436l-3.29-7.52a1,1,0,0,1,.5-1.27L299,421a1.32,1.32,0,0,1,1.75.69l3.85,8.8,2.21,5.05a1,1,0,0,1-.52,1.33L292.05,443a1.31,1.31,0,0,1-1.73-.68Zm15.71-14.52a1,1,0,0,1,.5-1.27L318,414a1.32,1.32,0,0,1,1.75.69l4.18,9.56,1.88,4.29a1,1,0,0,1-.52,1.33L311.05,436a1.31,1.31,0,0,1-1.73-.68l-2.46-5.63Zm19-8a1,1,0,0,1,.5-1.27L337,406a1.32,1.32,0,0,1,1.75.69l4.9,11.2,1.16,2.65a1,1,0,0,1-.52,1.33L330.05,428a1.31,1.31,0,0,1-1.73-.68l-1.75-4Zm19-7a1,1,0,0,1,.5-1.27L356,399a1.32,1.32,0,0,1,1.75.69l5.24,12,.82,1.88a1,1,0,0,1-.52,1.33L349.05,421a1.31,1.31,0,0,1-1.73-.68l-1.41-3.22Zm19-8a1,1,0,0,1,.5-1.27L375,391a1.32,1.32,0,0,1,1.75.69l5.95,13.61.11.24a1,1,0,0,1-.52,1.33L368.05,413a1.31,1.31,0,0,1-1.73-.68l-.69-1.58Zm19-8a1,1,0,0,1,.5-1.27L394,383a1.32,1.32,0,0,1,1.75.69l6.06,13.85a1,1,0,0,1-.52,1.33l-3.78,1.65-.07,0L387.05,405a1.31,1.31,0,0,1-1.7-.62l0-.06ZM393.88,380a1.32,1.32,0,0,1-1.74-.68l-6.08-13.91a1,1,0,0,1,.5-1.26l14.22-6.2a1.33,1.33,0,0,1,1.75.69l6.06,13.85a1,1,0,0,1-.52,1.33Zm1-22a1.32,1.32,0,0,1-1.74-.68l-6.08-13.91a1,1,0,0,1,.5-1.26l14.22-6.2a1.33,1.33,0,0,1,1.75.69l6.06,13.85a1,1,0,0,1-.52,1.33Zm-4.29.49a1,1,0,0,1-.52,1.33L375.88,366a1.32,1.32,0,0,1-1.74-.68l-6.08-13.91a1,1,0,0,1,.5-1.26l14.22-6.2a1.33,1.33,0,0,1,1.75.69Zm-19,8a1,1,0,0,1-.52,1.33L356.88,374a1.32,1.32,0,0,1-1.74-.68l-6.08-13.91a1,1,0,0,1,.5-1.26l14.22-6.2a1.33,1.33,0,0,1,1.75.69Zm-19,8a1,1,0,0,1-.52,1.33L337.88,382a1.32,1.32,0,0,1-1.74-.68l-6.08-13.91a1,1,0,0,1,.5-1.26l14.22-6.2a1.33,1.33,0,0,1,1.75.69Zm-19,7a1,1,0,0,1-.52,1.33L318.88,389a1.32,1.32,0,0,1-1.74-.68l-6.08-13.91a1,1,0,0,1,.5-1.26l14.22-6.2a1.33,1.33,0,0,1,1.75.69Zm-19,8a1,1,0,0,1-.52,1.33L299.88,397a1.32,1.32,0,0,1-1.74-.68l-6.08-13.91a1,1,0,0,1,.5-1.26l14.22-6.2a1.33,1.33,0,0,1,1.75.69Zm-19,7a1,1,0,0,1-.52,1.33L280.88,404a1.32,1.32,0,0,1-1.74-.68l-6.08-13.91a1,1,0,0,1,.5-1.26l14.22-6.2a1.33,1.33,0,0,1,1.75.69Zm-19,8a1,1,0,0,1-.52,1.33L261.88,412a1.32,1.32,0,0,1-1.74-.68l-6.08-13.91a1,1,0,0,1,.5-1.26l14.22-6.2a1.33,1.33,0,0,1,1.75.69Zm-18,8a1,1,0,0,1-.52,1.33L243.88,420a1.32,1.32,0,0,1-1.74-.68l-6.08-13.91a1,1,0,0,1,.5-1.26l14.22-6.2a1.33,1.33,0,0,1,1.75.69Zm-19,8a1,1,0,0,1-.52,1.33L224.88,428a1.32,1.32,0,0,1-1.74-.68l-6.08-13.91a1,1,0,0,1,.5-1.26l14.22-6.2a1.33,1.33,0,0,1,1.75.69Zm-19,8a1,1,0,0,1-.52,1.33L205.88,436a1.32,1.32,0,0,1-1.74-.68l-6.08-13.91a1,1,0,0,1,.5-1.26l14.22-6.2a1.33,1.33,0,0,1,1.75.69Zm-9.81,8.46a1.33,1.33,0,0,1,1.75.69l6.06,13.85a1,1,0,0,1-.52,1.33L203.88,459a1.32,1.32,0,0,1-1.74-.68l-6.08-13.91a1,1,0,0,1,.5-1.26Zm4.28-.54a1,1,0,0,1,.5-1.26l14.22-6.2a1.33,1.33,0,0,1,1.75.69l6.06,13.85a1,1,0,0,1-.52,1.33L222.88,451a1.32,1.32,0,0,1-1.74-.68Zm13.67,14.79L243,445a1.32,1.32,0,0,1,1.75.69l1.57,3.59,4.49,10.26a1,1,0,0,1-.52,1.33L236.05,467a1.31,1.31,0,0,1-1.73-.68l-5.08-11.6-1-2.31A1,1,0,0,1,228.73,451.16Zm16.83,14.95,14.22-6.2a1.33,1.33,0,0,1,1.75.69l6.06,13.85a1,1,0,0,1-.52,1.33L252.88,482a1.32,1.32,0,0,1-1.74-.68l-6.08-13.91A1,1,0,0,1,245.56,466.11Zm18.5-6.74a1,1,0,0,1,.5-1.26l14.22-6.2a1.33,1.33,0,0,1,1.75.69l6.06,13.85a1,1,0,0,1-.52,1.33L271.88,474a1.32,1.32,0,0,1-1.74-.68Zm19-8a1,1,0,0,1,.5-1.26l14.22-6.2a1.33,1.33,0,0,1,1.75.69l6.06,13.85a1,1,0,0,1-.52,1.33L290.88,466a1.32,1.32,0,0,1-1.74-.68Zm19-7a1,1,0,0,1,.5-1.26l14.22-6.2a1.33,1.33,0,0,1,1.75.69l6.06,13.85a1,1,0,0,1-.52,1.33L309.88,459a1.32,1.32,0,0,1-1.74-.68Zm19-8a1,1,0,0,1,.5-1.26l14.22-6.2a1.33,1.33,0,0,1,1.75.69l6.06,13.85a1,1,0,0,1-.52,1.33L328.88,451a1.32,1.32,0,0,1-1.74-.68Zm19-8a1,1,0,0,1,.5-1.26l14.22-6.2a1.33,1.33,0,0,1,1.75.69l6.06,13.85a1,1,0,0,1-.52,1.33L347.88,443a1.32,1.32,0,0,1-1.74-.68Zm19-8a1,1,0,0,1,.5-1.26l14.22-6.2a1.33,1.33,0,0,1,1.75.69l6.06,13.85a1,1,0,0,1-.52,1.33L366.88,435a1.32,1.32,0,0,1-1.74-.68Zm19-8a1,1,0,0,1,.5-1.26l14.22-6.2a1.33,1.33,0,0,1,1.75.69l6.06,13.85a1,1,0,0,1-.52,1.33L385.88,427a1.32,1.32,0,0,1-1.74-.68Zm18-8a1,1,0,0,1,.5-1.26l14.22-6.2a1.33,1.33,0,0,1,1.75.69l6.06,13.85a1,1,0,0,1-.52,1.33L403.88,419a1.32,1.32,0,0,1-1.74-.68Zm10-7.35a1.31,1.31,0,0,1-1.73-.68l-6.09-13.91a1,1,0,0,1,.5-1.27L413,375a1.32,1.32,0,0,1,1.75.69l6.06,13.85a1,1,0,0,1-.52,1.33ZM427,327.38l5,11.93a2.18,2.18,0,0,1-1.15,2.94L414,349.38c-1.12.46-3.37-.92-3.82-2l-4.37-10.94a2.24,2.24,0,0,1,1.19-2.88l17-7.28A2.36,2.36,0,0,1,427,327.38Zm-23.44-14.27,14.22-6.2a1.33,1.33,0,0,1,1.75.69l6.06,13.85a1,1,0,0,1-.52,1.33L410.88,329a1.32,1.32,0,0,1-1.74-.68l-6.08-13.91A1,1,0,0,1,403.56,313.11Zm-19,8,14.22-6.2a1.33,1.33,0,0,1,1.75.69l6.06,13.85a1,1,0,0,1-.52,1.33L391.88,337a1.32,1.32,0,0,1-1.74-.68l-6.08-13.91A1,1,0,0,1,384.56,321.11Zm-19,8,14.22-6.2a1.33,1.33,0,0,1,1.75.69l6.06,13.85a1,1,0,0,1-.52,1.33L372.88,345a1.32,1.32,0,0,1-1.74-.68l-6.08-13.91A1,1,0,0,1,365.56,329.11ZM343,338.52l17-7.28a2.36,2.36,0,0,1,3,1.14l5,11.93a2.18,2.18,0,0,1-1.15,2.94L350,354.38c-1.12.46-3.37-.92-3.82-2l-4.37-10.94A2.24,2.24,0,0,1,343,338.52ZM248,377.26,337,340.2a2.16,2.16,0,0,1,2.82,1.13l5.44,12.42a1.76,1.76,0,0,1-.93,2.32l-89.59,37.57a1.89,1.89,0,0,1-2.49-1l-5.29-13A1.77,1.77,0,0,1,248,377.26Zm-22.89,10.49,17-7.28a2.36,2.36,0,0,1,3,1.14l5,11.93a2.18,2.18,0,0,1-1.15,2.94l-16.88,7.13c-1.12.46-3.37-.92-3.82-2l-4.37-10.94A2.23,2.23,0,0,1,225.06,387.75Zm-20.5,8.36,14.22-6.2a1.33,1.33,0,0,1,1.75.69l6.06,13.85a1,1,0,0,1-.52,1.33L211.88,412a1.32,1.32,0,0,1-1.74-.68l-6.08-13.91A1,1,0,0,1,204.56,396.11Zm-19,8,14.22-6.2a1.33,1.33,0,0,1,1.75.69l6.06,13.85a1,1,0,0,1-.52,1.33L192.88,420a1.32,1.32,0,0,1-1.74-.68l-6.08-13.91A1,1,0,0,1,185.56,404.11Zm-19,8,14.22-6.2a1.33,1.33,0,0,1,1.75.69l6.06,13.85a1,1,0,0,1-.52,1.33L173.88,428a1.32,1.32,0,0,1-1.74-.68l-6.08-13.91A1,1,0,0,1,166.56,412.11Zm-13.42,23.17-6.08-13.91a1,1,0,0,1,.5-1.26l14.22-6.2a1.33,1.33,0,0,1,1.75.69l6.06,13.85a1,1,0,0,1-.52,1.33L154.88,436A1.32,1.32,0,0,1,153.14,435.28Zm10.27,19.1A2.66,2.66,0,0,1,160,453l-5-11.34a2.49,2.49,0,0,1,1.28-3.27l36.59-16.06a2.27,2.27,0,0,1,3,1.22l5,12.07a3,3,0,0,1-1.63,3.92ZM184.88,467a1.32,1.32,0,0,1-1.74-.68l-6.08-13.91a1,1,0,0,1,.5-1.26l14.22-6.2a1.33,1.33,0,0,1,1.75.69l6.06,13.85a1,1,0,0,1-.52,1.33Zm26.19,10.82L196.88,484a1.32,1.32,0,0,1-1.74-.68l-6.08-13.91a1,1,0,0,1,.5-1.26l5-2.2.06,0,9.12-4a1.34,1.34,0,0,1,1.66.51l.09.18,6.06,13.85A1,1,0,0,1,211.07,477.78Zm6-2.76a1.31,1.31,0,0,1-1.73-.68l-5.8-13.24-.29-.67a1,1,0,0,1,.5-1.27L224,453a1.32,1.32,0,0,1,1.75.69l.85,1.95,5.21,11.9a1,1,0,0,1-.52,1.33ZM233.88,490a1.32,1.32,0,0,1-1.74-.68l-6.08-13.91a1,1,0,0,1,.5-1.26l14.22-6.2a1.33,1.33,0,0,1,1.75.69l6.06,13.85a1,1,0,0,1-.52,1.33Zm26.55.07-13.83,5.69a1.75,1.75,0,0,1-2.28-.93l-1.57-3.65a1.9,1.9,0,0,1,1-2.49L257.43,483a1.73,1.73,0,0,1,2.24.91l1.66,3.88A1.68,1.68,0,0,1,260.43,490Zm19-8-13.83,5.69a1.75,1.75,0,0,1-2.28-.93l-1.57-3.65a1.9,1.9,0,0,1,1-2.49L276.43,475a1.73,1.73,0,0,1,2.24.91l1.66,3.88A1.68,1.68,0,0,1,279.43,482Zm19-8-13.83,5.69a1.75,1.75,0,0,1-2.28-.93l-1.57-3.65a1.9,1.9,0,0,1,1-2.49L295.43,467a1.73,1.73,0,0,1,2.24.91l1.66,3.88A1.68,1.68,0,0,1,298.43,474Zm19-8-13.83,5.69a1.75,1.75,0,0,1-2.28-.93l-1.57-3.65a1.9,1.9,0,0,1,1-2.49L314.43,459a1.73,1.73,0,0,1,2.24.91l1.66,3.88A1.68,1.68,0,0,1,317.43,466Zm19-8-13.83,5.69a1.75,1.75,0,0,1-2.28-.93l-1.57-3.65a1.9,1.9,0,0,1,1-2.49L333.43,451a1.73,1.73,0,0,1,2.24.91l1.66,3.88A1.68,1.68,0,0,1,336.43,458Zm19-8-13.83,5.69a1.75,1.75,0,0,1-2.28-.93l-1.57-3.65a1.9,1.9,0,0,1,1-2.49L352.43,443a1.73,1.73,0,0,1,2.24.91l1.66,3.88A1.68,1.68,0,0,1,355.43,450Zm19-8-13.83,5.69a1.75,1.75,0,0,1-2.28-.93l-1.57-3.65a1.9,1.9,0,0,1,1-2.49L371.43,435a1.73,1.73,0,0,1,2.24.91l1.66,3.88A1.68,1.68,0,0,1,374.43,442Zm19-8-13.83,5.69a1.75,1.75,0,0,1-2.28-.93l-1.57-3.65a1.9,1.9,0,0,1,1-2.49L390.43,427a1.73,1.73,0,0,1,2.24.91l1.66,3.88A1.68,1.68,0,0,1,393.43,434Zm18-8-13.83,5.69a1.75,1.75,0,0,1-2.28-.93l-1.57-3.65a1.9,1.9,0,0,1,1-2.49L408.43,419a1.73,1.73,0,0,1,2.24.91l1.66,3.88A1.68,1.68,0,0,1,411.43,426Zm19-8-13.83,5.69a1.75,1.75,0,0,1-2.28-.93l-1.57-3.65a1.9,1.9,0,0,1,1-2.49L427.43,411a1.73,1.73,0,0,1,2.24.91l1.66,3.88A1.68,1.68,0,0,1,430.43,418Zm6.33-14.52a1,1,0,0,1-.52,1.33L422.05,411a1.31,1.31,0,0,1-1.73-.68l-6.09-13.91a1,1,0,0,1,.5-1.27l2.09-.91L429,389a1.32,1.32,0,0,1,1.75.69l0,.1Zm-11.48-16.13a2.54,2.54,0,0,1-3.33-1.26l-5-10.68a2.26,2.26,0,0,1,1.11-3l21.61-10a2.38,2.38,0,0,1,3.22,1.32l5.1,12.61c.42,1.13-.89,1.51-2,2Z" transform="translate(-0.38 0.24)"/><path class="cls-4" d="M169.07,429.78,154.88,436a1.32,1.32,0,0,1-1.74-.68l-6.08-13.91a1,1,0,0,1,.5-1.26l14.22-6.2a1.33,1.33,0,0,1,1.75.69l6.06,13.85A1,1,0,0,1,169.07,429.78Z" transform="translate(-0.38 0.24)"/><path class="cls-4" d="M188.07,421.78,173.88,428a1.32,1.32,0,0,1-1.74-.68l-6.08-13.91a1,1,0,0,1,.5-1.26l14.22-6.2a1.33,1.33,0,0,1,1.75.69l6.06,13.85A1,1,0,0,1,188.07,421.78Z" transform="translate(-0.38 0.24)"/><path class="cls-4" d="M199.07,460.78,184.88,467a1.32,1.32,0,0,1-1.74-.68l-6.08-13.91a1,1,0,0,1,.5-1.26l14.22-6.2a1.33,1.33,0,0,1,1.75.69l6.06,13.85A1,1,0,0,1,199.07,460.78Z" transform="translate(-0.38 0.24)"/><path class="cls-4" d="M199.23,439.53l-35.82,14.85A2.66,2.66,0,0,1,160,453l-5-11.34a2.49,2.49,0,0,1,1.28-3.27l36.59-16.06a2.27,2.27,0,0,1,3,1.22l5,12.07A3,3,0,0,1,199.23,439.53Z" transform="translate(-0.38 0.24)"/><path class="cls-4" d="M207.07,413.78,192.88,420a1.32,1.32,0,0,1-1.74-.68l-6.08-13.91a1,1,0,0,1,.5-1.26l14.22-6.2a1.33,1.33,0,0,1,1.75.69l6.06,13.85A1,1,0,0,1,207.07,413.78Z" transform="translate(-0.38 0.24)"/><path class="cls-4" d="M218.07,452.78,203.88,459a1.32,1.32,0,0,1-1.74-.68l-6.08-13.91a1,1,0,0,1,.5-1.26l14.22-6.2a1.33,1.33,0,0,1,1.75.69l6.06,13.85A1,1,0,0,1,218.07,452.78Z" transform="translate(-0.38 0.24)"/><path class="cls-4" d="M220.07,429.78,205.88,436a1.32,1.32,0,0,1-1.74-.68l-6.08-13.91a1,1,0,0,1,.5-1.26l14.22-6.2a1.33,1.33,0,0,1,1.75.69l6.06,13.85A1,1,0,0,1,220.07,429.78Z" transform="translate(-0.38 0.24)"/><path class="cls-4" d="M226.07,405.78,211.88,412a1.32,1.32,0,0,1-1.74-.68l-6.08-13.91a1,1,0,0,1,.5-1.26l14.22-6.2a1.33,1.33,0,0,1,1.75.69l6.06,13.85A1,1,0,0,1,226.07,405.78Z" transform="translate(-0.38 0.24)"/><path class="cls-4" d="M237.07,444.78,222.88,451a1.32,1.32,0,0,1-1.74-.68l-6.08-13.91a1,1,0,0,1,.5-1.26l14.22-6.2a1.33,1.33,0,0,1,1.75.69l6.06,13.85A1,1,0,0,1,237.07,444.78Z" transform="translate(-0.38 0.24)"/><path class="cls-4" d="M239.07,421.78,224.88,428a1.32,1.32,0,0,1-1.74-.68l-6.08-13.91a1,1,0,0,1,.5-1.26l14.22-6.2a1.33,1.33,0,0,1,1.75.69l6.06,13.85A1,1,0,0,1,239.07,421.78Z" transform="translate(-0.38 0.24)"/><path class="cls-4" d="M248.94,396.48l-16.88,7.13c-1.12.46-3.37-.92-3.82-2l-4.37-10.94a2.23,2.23,0,0,1,1.19-2.88l17-7.28a2.36,2.36,0,0,1,3,1.14l5,11.93A2.18,2.18,0,0,1,248.94,396.48Z" transform="translate(-0.38 0.24)"/><path class="cls-4" d="M257.07,435.78,242.88,442a1.32,1.32,0,0,1-1.74-.68l-6.08-13.91a1,1,0,0,1,.5-1.26l14.22-6.2a1.33,1.33,0,0,1,1.75.69l6.06,13.85A1,1,0,0,1,257.07,435.78Z" transform="translate(-0.38 0.24)"/><path class="cls-4" d="M258.07,413.78,243.88,420a1.32,1.32,0,0,1-1.74-.68l-6.08-13.91a1,1,0,0,1,.5-1.26l14.22-6.2a1.33,1.33,0,0,1,1.75.69l6.06,13.85A1,1,0,0,1,258.07,413.78Z" transform="translate(-0.38 0.24)"/><path class="cls-4" d="M275.07,427.78,260.88,434a1.32,1.32,0,0,1-1.74-.68l-6.08-13.91a1,1,0,0,1,.5-1.26l14.22-6.2a1.33,1.33,0,0,1,1.75.69l6.06,13.85A1,1,0,0,1,275.07,427.78Z" transform="translate(-0.38 0.24)"/><path class="cls-4" d="M276.07,405.78,261.88,412a1.32,1.32,0,0,1-1.74-.68l-6.08-13.91a1,1,0,0,1,.5-1.26l14.22-6.2a1.33,1.33,0,0,1,1.75.69l6.06,13.85A1,1,0,0,1,276.07,405.78Z" transform="translate(-0.38 0.24)"/><path class="cls-4" d="M294.07,419.78,279.88,426a1.32,1.32,0,0,1-1.74-.68l-6.08-13.91a1,1,0,0,1,.5-1.26l14.22-6.2a1.33,1.33,0,0,1,1.75.69l6.06,13.85A1,1,0,0,1,294.07,419.78Z" transform="translate(-0.38 0.24)"/><path class="cls-4" d="M295.07,397.78,280.88,404a1.32,1.32,0,0,1-1.74-.68l-6.08-13.91a1,1,0,0,1,.5-1.26l14.22-6.2a1.33,1.33,0,0,1,1.75.69l6.06,13.85A1,1,0,0,1,295.07,397.78Z" transform="translate(-0.38 0.24)"/><path class="cls-4" d="M313.07,412.78,298.88,419a1.32,1.32,0,0,1-1.74-.68l-6.08-13.91a1,1,0,0,1,.5-1.26l14.22-6.2a1.33,1.33,0,0,1,1.75.69l6.06,13.85A1,1,0,0,1,313.07,412.78Z" transform="translate(-0.38 0.24)"/><path class="cls-4" d="M314.07,390.78,299.88,397a1.32,1.32,0,0,1-1.74-.68l-6.08-13.91a1,1,0,0,1,.5-1.26l14.22-6.2a1.33,1.33,0,0,1,1.75.69l6.06,13.85A1,1,0,0,1,314.07,390.78Z" transform="translate(-0.38 0.24)"/><path class="cls-4" d="M332.07,404.78,317.88,411a1.32,1.32,0,0,1-1.74-.68l-6.08-13.91a1,1,0,0,1,.5-1.26l14.22-6.2a1.33,1.33,0,0,1,1.75.69l6.06,13.85A1,1,0,0,1,332.07,404.78Z" transform="translate(-0.38 0.24)"/><path class="cls-4" d="M333.07,382.78,318.88,389a1.32,1.32,0,0,1-1.74-.68l-6.08-13.91a1,1,0,0,1,.5-1.26l14.22-6.2a1.33,1.33,0,0,1,1.75.69l6.06,13.85A1,1,0,0,1,333.07,382.78Z" transform="translate(-0.38 0.24)"/><path class="cls-4" d="M344.36,356.07l-89.59,37.57a1.89,1.89,0,0,1-2.49-1l-5.29-13a1.77,1.77,0,0,1,1-2.3L337,340.2a2.16,2.16,0,0,1,2.82,1.13l5.44,12.42A1.76,1.76,0,0,1,344.36,356.07Z" transform="translate(-0.38 0.24)"/><path class="cls-4" d="M351.07,397.78,336.88,404a1.32,1.32,0,0,1-1.74-.68l-6.08-13.91a1,1,0,0,1,.5-1.26l14.22-6.2a1.33,1.33,0,0,1,1.75.69l6.06,13.85A1,1,0,0,1,351.07,397.78Z" transform="translate(-0.38 0.24)"/><path class="cls-4" d="M352.07,375.78,337.88,382a1.32,1.32,0,0,1-1.74-.68l-6.08-13.91a1,1,0,0,1,.5-1.26l14.22-6.2a1.33,1.33,0,0,1,1.75.69l6.06,13.85A1,1,0,0,1,352.07,375.78Z" transform="translate(-0.38 0.24)"/><path class="cls-4" d="M366.88,347.25,350,354.38c-1.12.46-3.37-.92-3.82-2l-4.37-10.94a2.24,2.24,0,0,1,1.19-2.88l17-7.28a2.36,2.36,0,0,1,3,1.14l5,11.93A2.18,2.18,0,0,1,366.88,347.25Z" transform="translate(-0.38 0.24)"/><path class="cls-4" d="M370.07,389.78,355.88,396a1.32,1.32,0,0,1-1.74-.68l-6.08-13.91a1,1,0,0,1,.5-1.26l14.22-6.2a1.33,1.33,0,0,1,1.75.69l6.06,13.85A1,1,0,0,1,370.07,389.78Z" transform="translate(-0.38 0.24)"/><path class="cls-4" d="M371.07,367.78,356.88,374a1.32,1.32,0,0,1-1.74-.68l-6.08-13.91a1,1,0,0,1,.5-1.26l14.22-6.2a1.33,1.33,0,0,1,1.75.69l6.06,13.85A1,1,0,0,1,371.07,367.78Z" transform="translate(-0.38 0.24)"/><path class="cls-4" d="M387.07,338.78,372.88,345a1.32,1.32,0,0,1-1.74-.68l-6.08-13.91a1,1,0,0,1,.5-1.26l14.22-6.2a1.33,1.33,0,0,1,1.75.69l6.06,13.85A1,1,0,0,1,387.07,338.78Z" transform="translate(-0.38 0.24)"/><path class="cls-4" d="M389.07,381.78,374.88,388a1.32,1.32,0,0,1-1.74-.68l-6.08-13.91a1,1,0,0,1,.5-1.26l14.22-6.2a1.33,1.33,0,0,1,1.75.69l6.06,13.85A1,1,0,0,1,389.07,381.78Z" transform="translate(-0.38 0.24)"/><path class="cls-4" d="M390.07,359.78,375.88,366a1.32,1.32,0,0,1-1.74-.68l-6.08-13.91a1,1,0,0,1,.5-1.26l14.22-6.2a1.33,1.33,0,0,1,1.75.69l6.06,13.85A1,1,0,0,1,390.07,359.78Z" transform="translate(-0.38 0.24)"/><path class="cls-4" d="M406.07,330.78,391.88,337a1.32,1.32,0,0,1-1.74-.68l-6.08-13.91a1,1,0,0,1,.5-1.26l14.22-6.2a1.33,1.33,0,0,1,1.75.69l6.06,13.85A1,1,0,0,1,406.07,330.78Z" transform="translate(-0.38 0.24)"/><path class="cls-4" d="M408.07,373.78,393.88,380a1.32,1.32,0,0,1-1.74-.68l-6.08-13.91a1,1,0,0,1,.5-1.26l14.22-6.2a1.33,1.33,0,0,1,1.75.69l6.06,13.85A1,1,0,0,1,408.07,373.78Z" transform="translate(-0.38 0.24)"/><path class="cls-4" d="M409.07,351.78,394.88,358a1.32,1.32,0,0,1-1.74-.68l-6.08-13.91a1,1,0,0,1,.5-1.26l14.22-6.2a1.33,1.33,0,0,1,1.75.69l6.06,13.85A1,1,0,0,1,409.07,351.78Z" transform="translate(-0.38 0.24)"/><path class="cls-4" d="M420.24,390.84,406.05,397a1.31,1.31,0,0,1-1.73-.68l-6.09-13.91a1,1,0,0,1,.5-1.27L413,375a1.32,1.32,0,0,1,1.75.69l6.06,13.85A1,1,0,0,1,420.24,390.84Z" transform="translate(-0.38 0.24)"/><path class="cls-4" d="M425.07,322.78,410.88,329a1.32,1.32,0,0,1-1.74-.68l-6.08-13.91a1,1,0,0,1,.5-1.26l14.22-6.2a1.33,1.33,0,0,1,1.75.69l6.06,13.85A1,1,0,0,1,425.07,322.78Z" transform="translate(-0.38 0.24)"/><path class="cls-4" d="M430.88,342.25,414,349.38c-1.12.46-3.37-.92-3.82-2l-4.37-10.94a2.24,2.24,0,0,1,1.19-2.88l17-7.28a2.36,2.36,0,0,1,3,1.14l5,11.93A2.18,2.18,0,0,1,430.88,342.25Z" transform="translate(-0.38 0.24)"/><path class="cls-4" d="M438.18,360.56l-25.27,10.6a3,3,0,0,1-4-1.73l-4.11-11a2.35,2.35,0,0,1,1.27-3L432,344.26a2.22,2.22,0,0,1,2.92,1.15l4.88,11.17A3,3,0,0,1,438.18,360.56Z" transform="translate(-0.38 0.24)"/><path class="cls-4" d="M446,378.38l-20.72,9a2.54,2.54,0,0,1-3.33-1.26l-5-10.68a2.26,2.26,0,0,1,1.11-3l21.61-10a2.38,2.38,0,0,1,3.22,1.32l5.1,12.61C448.42,377.51,447.11,377.89,446,378.38Z" transform="translate(-0.38 0.24)"/><path class="cls-5" d="M345,331.38l-128,54c-2,.57-3.72-.35-5-3l-31-76c-1.27-3-.71-5.08,2-6l126-52c3.14-1.37,5.39-.49,7,2l31,75C348.61,328.52,347.87,330.46,345,331.38Z" transform="translate(-0.38 0.24)"/><path class="cls-4" d="M436.05,417.43a250.31,250.31,0,0,1-31.42,29.29L286.71,497.27h0a251.31,251.31,0,0,1-36.2,2.61q-4.49,0-8.92-.16Z" transform="translate(-0.38 0.24)"/><path class="cls-6" d="M425.07,322.78,410.88,329a1.32,1.32,0,0,1-1.74-.68l-6.08-13.91a1,1,0,0,1,.5-1.26l14.22-6.2a1.33,1.33,0,0,1,1.75.69l6.06,13.85A1,1,0,0,1,425.07,322.78Z" transform="translate(-0.38 0.24)"/><path class="cls-6" d="M406.07,330.78,391.88,337a1.32,1.32,0,0,1-1.74-.68l-6.08-13.91a1,1,0,0,1,.5-1.26l14.22-6.2a1.33,1.33,0,0,1,1.75.69l6.06,13.85A1,1,0,0,1,406.07,330.78Z" transform="translate(-0.38 0.24)"/><path class="cls-6" d="M387.07,338.78,372.88,345a1.32,1.32,0,0,1-1.74-.68l-6.08-13.91a1,1,0,0,1,.5-1.26l14.22-6.2a1.33,1.33,0,0,1,1.75.69l6.06,13.85A1,1,0,0,1,387.07,338.78Z" transform="translate(-0.38 0.24)"/><path class="cls-6" d="M409.07,351.78,394.88,358a1.32,1.32,0,0,1-1.74-.68l-6.08-13.91a1,1,0,0,1,.5-1.26l14.22-6.2a1.33,1.33,0,0,1,1.75.69l6.06,13.85A1,1,0,0,1,409.07,351.78Z" transform="translate(-0.38 0.24)"/><path class="cls-6" d="M390.07,359.78,375.88,366a1.32,1.32,0,0,1-1.74-.68l-6.08-13.91a1,1,0,0,1,.5-1.26l14.22-6.2a1.33,1.33,0,0,1,1.75.69l6.06,13.85A1,1,0,0,1,390.07,359.78Z" transform="translate(-0.38 0.24)"/><path class="cls-6" d="M371.07,367.78,356.88,374a1.32,1.32,0,0,1-1.74-.68l-6.08-13.91a1,1,0,0,1,.5-1.26l14.22-6.2a1.33,1.33,0,0,1,1.75.69l6.06,13.85A1,1,0,0,1,371.07,367.78Z" transform="translate(-0.38 0.24)"/><path class="cls-6" d="M352.07,375.78,337.88,382a1.32,1.32,0,0,1-1.74-.68l-6.08-13.91a1,1,0,0,1,.5-1.26l14.22-6.2a1.33,1.33,0,0,1,1.75.69l6.06,13.85A1,1,0,0,1,352.07,375.78Z" transform="translate(-0.38 0.24)"/><path class="cls-6" d="M333.07,382.78,318.88,389a1.32,1.32,0,0,1-1.74-.68l-6.08-13.91a1,1,0,0,1,.5-1.26l14.22-6.2a1.33,1.33,0,0,1,1.75.69l6.06,13.85A1,1,0,0,1,333.07,382.78Z" transform="translate(-0.38 0.24)"/><path class="cls-6" d="M314.07,390.78,299.88,397a1.32,1.32,0,0,1-1.74-.68l-6.08-13.91a1,1,0,0,1,.5-1.26l14.22-6.2a1.33,1.33,0,0,1,1.75.69l6.06,13.85A1,1,0,0,1,314.07,390.78Z" transform="translate(-0.38 0.24)"/><path class="cls-6" d="M295.07,397.78,280.88,404a1.32,1.32,0,0,1-1.74-.68l-6.08-13.91a1,1,0,0,1,.5-1.26l14.22-6.2a1.33,1.33,0,0,1,1.75.69l6.06,13.85A1,1,0,0,1,295.07,397.78Z" transform="translate(-0.38 0.24)"/><path class="cls-6" d="M276.07,405.78,261.88,412a1.32,1.32,0,0,1-1.74-.68l-6.08-13.91a1,1,0,0,1,.5-1.26l14.22-6.2a1.33,1.33,0,0,1,1.75.69l6.06,13.85A1,1,0,0,1,276.07,405.78Z" transform="translate(-0.38 0.24)"/><path class="cls-6" d="M258.07,413.78,243.88,420a1.32,1.32,0,0,1-1.74-.68l-6.08-13.91a1,1,0,0,1,.5-1.26l14.22-6.2a1.33,1.33,0,0,1,1.75.69l6.06,13.85A1,1,0,0,1,258.07,413.78Z" transform="translate(-0.38 0.24)"/><path class="cls-6" d="M239.07,421.78,224.88,428a1.32,1.32,0,0,1-1.74-.68l-6.08-13.91a1,1,0,0,1,.5-1.26l14.22-6.2a1.33,1.33,0,0,1,1.75.69l6.06,13.85A1,1,0,0,1,239.07,421.78Z" transform="translate(-0.38 0.24)"/><path class="cls-6" d="M220.07,429.78,205.88,436a1.32,1.32,0,0,1-1.74-.68l-6.08-13.91a1,1,0,0,1,.5-1.26l14.22-6.2a1.33,1.33,0,0,1,1.75.69l6.06,13.85A1,1,0,0,1,220.07,429.78Z" transform="translate(-0.38 0.24)"/><path class="cls-6" d="M408.07,373.78,393.88,380a1.32,1.32,0,0,1-1.74-.68l-6.08-13.91a1,1,0,0,1,.5-1.26l14.22-6.2a1.33,1.33,0,0,1,1.75.69l6.06,13.85A1,1,0,0,1,408.07,373.78Z" transform="translate(-0.38 0.24)"/><path class="cls-6" d="M389.07,381.78,374.88,388a1.32,1.32,0,0,1-1.74-.68l-6.08-13.91a1,1,0,0,1,.5-1.26l14.22-6.2a1.33,1.33,0,0,1,1.75.69l6.06,13.85A1,1,0,0,1,389.07,381.78Z" transform="translate(-0.38 0.24)"/><path class="cls-6" d="M370.07,389.78,355.88,396a1.32,1.32,0,0,1-1.74-.68l-6.08-13.91a1,1,0,0,1,.5-1.26l14.22-6.2a1.33,1.33,0,0,1,1.75.69l6.06,13.85A1,1,0,0,1,370.07,389.78Z" transform="translate(-0.38 0.24)"/><path class="cls-6" d="M351.07,397.78,336.88,404a1.32,1.32,0,0,1-1.74-.68l-6.08-13.91a1,1,0,0,1,.5-1.26l14.22-6.2a1.33,1.33,0,0,1,1.75.69l6.06,13.85A1,1,0,0,1,351.07,397.78Z" transform="translate(-0.38 0.24)"/><path class="cls-6" d="M332.07,404.78,317.88,411a1.32,1.32,0,0,1-1.74-.68l-6.08-13.91a1,1,0,0,1,.5-1.26l14.22-6.2a1.33,1.33,0,0,1,1.75.69l6.06,13.85A1,1,0,0,1,332.07,404.78Z" transform="translate(-0.38 0.24)"/><path class="cls-6" d="M313.07,412.78,298.88,419a1.32,1.32,0,0,1-1.74-.68l-6.08-13.91a1,1,0,0,1,.5-1.26l14.22-6.2a1.33,1.33,0,0,1,1.75.69l6.06,13.85A1,1,0,0,1,313.07,412.78Z" transform="translate(-0.38 0.24)"/><path class="cls-6" d="M294.07,419.78,279.88,426a1.32,1.32,0,0,1-1.74-.68l-6.08-13.91a1,1,0,0,1,.5-1.26l14.22-6.2a1.33,1.33,0,0,1,1.75.69l6.06,13.85A1,1,0,0,1,294.07,419.78Z" transform="translate(-0.38 0.24)"/><path class="cls-6" d="M275.07,427.78,260.88,434a1.32,1.32,0,0,1-1.74-.68l-6.08-13.91a1,1,0,0,1,.5-1.26l14.22-6.2a1.33,1.33,0,0,1,1.75.69l6.06,13.85A1,1,0,0,1,275.07,427.78Z" transform="translate(-0.38 0.24)"/><path class="cls-6" d="M257.07,435.78,242.88,442a1.32,1.32,0,0,1-1.74-.68l-6.08-13.91a1,1,0,0,1,.5-1.26l14.22-6.2a1.33,1.33,0,0,1,1.75.69l6.06,13.85A1,1,0,0,1,257.07,435.78Z" transform="translate(-0.38 0.24)"/><path class="cls-6" d="M237.07,444.78,222.88,451a1.32,1.32,0,0,1-1.74-.68l-6.08-13.91a1,1,0,0,1,.5-1.26l14.22-6.2a1.33,1.33,0,0,1,1.75.69l6.06,13.85A1,1,0,0,1,237.07,444.78Z" transform="translate(-0.38 0.24)"/><path class="cls-6" d="M218.07,452.78,203.88,459a1.32,1.32,0,0,1-1.74-.68l-6.08-13.91a1,1,0,0,1,.5-1.26l14.22-6.2a1.33,1.33,0,0,1,1.75.69l6.06,13.85A1,1,0,0,1,218.07,452.78Z" transform="translate(-0.38 0.24)"/><path class="cls-6" d="M420.24,390.84,406.05,397a1.31,1.31,0,0,1-1.73-.68l-6.09-13.91a1,1,0,0,1,.5-1.27L413,375a1.32,1.32,0,0,1,1.75.69l6.06,13.85A1,1,0,0,1,420.24,390.84Z" transform="translate(-0.38 0.24)"/><path class="cls-6" d="M401.24,398.84l-3.78,1.65-.07,0L387.05,405a1.31,1.31,0,0,1-1.7-.62l0-.06-6.09-13.91a1,1,0,0,1,.5-1.27L394,383a1.32,1.32,0,0,1,1.75.69l6.06,13.85A1,1,0,0,1,401.24,398.84Z" transform="translate(-0.38 0.24)"/><path class="cls-6" d="M382.24,406.84,368.05,413a1.31,1.31,0,0,1-1.73-.68l-.69-1.58-5.4-12.33a1,1,0,0,1,.5-1.27L375,391a1.32,1.32,0,0,1,1.75.69l5.95,13.61.11.24A1,1,0,0,1,382.24,406.84Z" transform="translate(-0.38 0.24)"/><path class="cls-6" d="M363.24,414.84,349.05,421a1.31,1.31,0,0,1-1.73-.68l-1.41-3.22-4.68-10.69a1,1,0,0,1,.5-1.27L356,399a1.32,1.32,0,0,1,1.75.69l5.24,12,.82,1.88A1,1,0,0,1,363.24,414.84Z" transform="translate(-0.38 0.24)"/><path class="cls-6" d="M344.24,421.84,330.05,428a1.31,1.31,0,0,1-1.73-.68l-1.75-4-4.34-9.92a1,1,0,0,1,.5-1.27L337,406a1.32,1.32,0,0,1,1.75.69l4.9,11.2,1.16,2.65A1,1,0,0,1,344.24,421.84Z" transform="translate(-0.38 0.24)"/><path class="cls-6" d="M325.24,429.84,311.05,436a1.31,1.31,0,0,1-1.73-.68l-2.46-5.63-3.63-8.28a1,1,0,0,1,.5-1.27L318,414a1.32,1.32,0,0,1,1.75.69l4.18,9.56,1.88,4.29A1,1,0,0,1,325.24,429.84Z" transform="translate(-0.38 0.24)"/><path class="cls-6" d="M306.24,436.84,292.05,443a1.31,1.31,0,0,1-1.73-.68l-2.8-6.39-3.29-7.52a1,1,0,0,1,.5-1.27L299,421a1.32,1.32,0,0,1,1.75.69l3.85,8.8,2.21,5.05A1,1,0,0,1,306.24,436.84Z" transform="translate(-0.38 0.24)"/><path class="cls-6" d="M287.24,444.84,273.05,451a1.31,1.31,0,0,1-1.73-.68l-3.52-8-2.57-5.88a1,1,0,0,1,.5-1.27L280,429a1.32,1.32,0,0,1,1.75.69l3.13,7.15,2.93,6.7A1,1,0,0,1,287.24,444.84Z" transform="translate(-0.38 0.24)"/><path class="cls-6" d="M269.24,452.84,255.05,459a1.31,1.31,0,0,1-1.73-.68l-4.36-10-1.73-3.95a1,1,0,0,1,.5-1.27L262,437a1.32,1.32,0,0,1,1.75.69l2.29,5.23,3.77,8.62A1,1,0,0,1,269.24,452.84Z" transform="translate(-0.38 0.24)"/><path class="cls-6" d="M250.24,460.84,236.05,467a1.31,1.31,0,0,1-1.73-.68l-5.08-11.6-1-2.31a1,1,0,0,1,.5-1.27L243,445a1.32,1.32,0,0,1,1.75.69l1.57,3.59,4.49,10.26A1,1,0,0,1,250.24,460.84Z" transform="translate(-0.38 0.24)"/><path class="cls-6" d="M231.24,468.84,217.05,475a1.31,1.31,0,0,1-1.73-.68l-5.8-13.24-.29-.67a1,1,0,0,1,.5-1.27L224,453a1.32,1.32,0,0,1,1.75.69l.85,1.95,5.21,11.9A1,1,0,0,1,231.24,468.84Z" transform="translate(-0.38 0.24)"/><path class="cls-6" d="M418.07,412.78,403.88,419a1.32,1.32,0,0,1-1.74-.68l-6.08-13.91a1,1,0,0,1,.5-1.26l14.22-6.2a1.33,1.33,0,0,1,1.75.69l6.06,13.85A1,1,0,0,1,418.07,412.78Z" transform="translate(-0.38 0.24)"/><path class="cls-6" d="M400.07,420.78,385.88,427a1.32,1.32,0,0,1-1.74-.68l-6.08-13.91a1,1,0,0,1,.5-1.26l14.22-6.2a1.33,1.33,0,0,1,1.75.69l6.06,13.85A1,1,0,0,1,400.07,420.78Z" transform="translate(-0.38 0.24)"/><path class="cls-6" d="M381.07,428.78,366.88,435a1.32,1.32,0,0,1-1.74-.68l-6.08-13.91a1,1,0,0,1,.5-1.26l14.22-6.2a1.33,1.33,0,0,1,1.75.69l6.06,13.85A1,1,0,0,1,381.07,428.78Z" transform="translate(-0.38 0.24)"/><path class="cls-6" d="M362.07,436.78,347.88,443a1.32,1.32,0,0,1-1.74-.68l-6.08-13.91a1,1,0,0,1,.5-1.26l14.22-6.2a1.33,1.33,0,0,1,1.75.69l6.06,13.85A1,1,0,0,1,362.07,436.78Z" transform="translate(-0.38 0.24)"/><path class="cls-6" d="M343.07,444.78,328.88,451a1.32,1.32,0,0,1-1.74-.68l-6.08-13.91a1,1,0,0,1,.5-1.26l14.22-6.2a1.33,1.33,0,0,1,1.75.69l6.06,13.85A1,1,0,0,1,343.07,444.78Z" transform="translate(-0.38 0.24)"/><path class="cls-6" d="M324.07,452.78,309.88,459a1.32,1.32,0,0,1-1.74-.68l-6.08-13.91a1,1,0,0,1,.5-1.26l14.22-6.2a1.33,1.33,0,0,1,1.75.69l6.06,13.85A1,1,0,0,1,324.07,452.78Z" transform="translate(-0.38 0.24)"/><path class="cls-6" d="M305.07,459.78,290.88,466a1.32,1.32,0,0,1-1.74-.68l-6.08-13.91a1,1,0,0,1,.5-1.26l14.22-6.2a1.33,1.33,0,0,1,1.75.69l6.06,13.85A1,1,0,0,1,305.07,459.78Z" transform="translate(-0.38 0.24)"/><path class="cls-6" d="M286.07,467.78,271.88,474a1.32,1.32,0,0,1-1.74-.68l-6.08-13.91a1,1,0,0,1,.5-1.26l14.22-6.2a1.33,1.33,0,0,1,1.75.69l6.06,13.85A1,1,0,0,1,286.07,467.78Z" transform="translate(-0.38 0.24)"/><path class="cls-6" d="M267.07,475.78,252.88,482a1.32,1.32,0,0,1-1.74-.68l-6.08-13.91a1,1,0,0,1,.5-1.26l14.22-6.2a1.33,1.33,0,0,1,1.75.69l6.06,13.85A1,1,0,0,1,267.07,475.78Z" transform="translate(-0.38 0.24)"/><path class="cls-6" d="M248.07,483.78,233.88,490a1.32,1.32,0,0,1-1.74-.68l-6.08-13.91a1,1,0,0,1,.5-1.26l14.22-6.2a1.33,1.33,0,0,1,1.75.69l6.06,13.85A1,1,0,0,1,248.07,483.78Z" transform="translate(-0.38 0.24)"/><path class="cls-6" d="M229.07,491.78l-13.14,5.72c-1-.12-1.92-.26-2.87-.41l-6-13.72a1,1,0,0,1,.5-1.26l14.22-6.2a1.33,1.33,0,0,1,1.75.69l6.06,13.85A1,1,0,0,1,229.07,491.78Z" transform="translate(-0.38 0.24)"/><path class="cls-6" d="M199.07,460.78,184.88,467a1.32,1.32,0,0,1-1.74-.68l-6.08-13.91a1,1,0,0,1,.5-1.26l14.22-6.2a1.33,1.33,0,0,1,1.75.69l6.06,13.85A1,1,0,0,1,199.07,460.78Z" transform="translate(-0.38 0.24)"/><path class="cls-6" d="M211.07,477.78,196.88,484a1.32,1.32,0,0,1-1.74-.68l-6.08-13.91a1,1,0,0,1,.5-1.26l5-2.2.06,0,9.12-4a1.34,1.34,0,0,1,1.66.51l.09.18,6.06,13.85A1,1,0,0,1,211.07,477.78Z" transform="translate(-0.38 0.24)"/><path class="cls-6" d="M209.68,496.57q-11.88-2-23.36-5l16.25-6.64a1.58,1.58,0,0,1,2,.74Z" transform="translate(-0.38 0.24)"/><path class="cls-6" d="M366.88,347.25,350,354.38c-1.12.46-3.37-.92-3.82-2l-4.37-10.94a2.24,2.24,0,0,1,1.19-2.88l17-7.28a2.36,2.36,0,0,1,3,1.14l5,11.93A2.18,2.18,0,0,1,366.88,347.25Z" transform="translate(-0.38 0.24)"/><path class="cls-6" d="M344.36,356.07l-89.59,37.57a1.89,1.89,0,0,1-2.49-1l-5.29-13a1.77,1.77,0,0,1,1-2.3L337,340.2a2.16,2.16,0,0,1,2.82,1.13l5.44,12.42A1.76,1.76,0,0,1,344.36,356.07Z" transform="translate(-0.38 0.24)"/><path class="cls-6" d="M248.94,396.48l-16.88,7.13c-1.12.46-3.37-.92-3.82-2l-4.37-10.94a2.23,2.23,0,0,1,1.19-2.88l17-7.28a2.36,2.36,0,0,1,3,1.14l5,11.93A2.18,2.18,0,0,1,248.94,396.48Z" transform="translate(-0.38 0.24)"/><path class="cls-6" d="M226.07,405.78,211.88,412a1.32,1.32,0,0,1-1.74-.68l-6.08-13.91a1,1,0,0,1,.5-1.26l14.22-6.2a1.33,1.33,0,0,1,1.75.69l6.06,13.85A1,1,0,0,1,226.07,405.78Z" transform="translate(-0.38 0.24)"/><path class="cls-6" d="M207.07,413.78,192.88,420a1.32,1.32,0,0,1-1.74-.68l-6.08-13.91a1,1,0,0,1,.5-1.26l14.22-6.2a1.33,1.33,0,0,1,1.75.69l6.06,13.85A1,1,0,0,1,207.07,413.78Z" transform="translate(-0.38 0.24)"/><path class="cls-6" d="M188.07,421.78,173.88,428a1.32,1.32,0,0,1-1.74-.68l-6.08-13.91a1,1,0,0,1,.5-1.26l14.22-6.2a1.33,1.33,0,0,1,1.75.69l6.06,13.85A1,1,0,0,1,188.07,421.78Z" transform="translate(-0.38 0.24)"/><path class="cls-6" d="M169.07,429.78,154.88,436a1.32,1.32,0,0,1-1.74-.68l-6.08-13.91a1,1,0,0,1,.5-1.26l14.22-6.2a1.33,1.33,0,0,1,1.75.69l6.06,13.85A1,1,0,0,1,169.07,429.78Z" transform="translate(-0.38 0.24)"/><path class="cls-6" d="M199.23,439.53l-35.82,14.85A2.66,2.66,0,0,1,160,453l-5-11.34a2.49,2.49,0,0,1,1.28-3.27l36.59-16.06a2.27,2.27,0,0,1,3,1.22l5,12.07A3,3,0,0,1,199.23,439.53Z" transform="translate(-0.38 0.24)"/><path class="cls-6" d="M191.46,486.07l-9.5,4.28h0l-.17,0-.45-.13-7-2.12-5.56-13.82-6.3-15.66a1.32,1.32,0,0,1,.71-1.7l9.64-4a1.26,1.26,0,0,1,1.66.68L181.4,470l.09.19a1.46,1.46,0,0,0,1.9.55l1.52-.77a1.17,1.17,0,0,1,1.58.57l5.83,13.34A1.7,1.7,0,0,1,191.46,486.07Z" transform="translate(-0.38 0.24)"/><path class="cls-6" d="M182,490.35h0l-.16-.05Z" transform="translate(-0.38 0.24)"/><path class="cls-6" d="M430.88,342.25,414,349.38c-1.12.46-3.37-.92-3.82-2l-4.37-10.94a2.24,2.24,0,0,1,1.19-2.88l17-7.28a2.36,2.36,0,0,1,3,1.14l5,11.93A2.18,2.18,0,0,1,430.88,342.25Z" transform="translate(-0.38 0.24)"/><path class="cls-6" d="M436.24,404.84,422.05,411a1.31,1.31,0,0,1-1.73-.68l-6.09-13.91a1,1,0,0,1,.5-1.27l2.09-.91L429,389a1.32,1.32,0,0,1,1.75.69l0,.1,6,13.75A1,1,0,0,1,436.24,404.84Z" transform="translate(-0.38 0.24)"/><path class="cls-6" d="M438.18,360.56l-25.27,10.6a3,3,0,0,1-4-1.73l-4.11-11a2.35,2.35,0,0,1,1.27-3L432,344.26a2.22,2.22,0,0,1,2.92,1.15l4.88,11.17A3,3,0,0,1,438.18,360.56Z" transform="translate(-0.38 0.24)"/><path class="cls-6" d="M446,378.38l-20.72,9a2.54,2.54,0,0,1-3.33-1.26l-5-10.68a2.26,2.26,0,0,1,1.11-3l21.61-10a2.38,2.38,0,0,1,3.22,1.32l5.1,12.61C448.42,377.51,447.11,377.89,446,378.38Z" transform="translate(-0.38 0.24)"/><path class="cls-6" d="M455,393.76l-3,4.1-10.61,4.87a1.53,1.53,0,0,1-2-.77l-5.8-13.11-.11-.25a1.36,1.36,0,0,1,.73-1.74L447.57,381a1.58,1.58,0,0,1,2.07.8l.72,1.62Z" transform="translate(-0.38 0.24)"/><path class="cls-6" d="M449.28,401.51,439,414.15l0,0-.17.21h0l-3.15,1.31a1.74,1.74,0,0,1-2.27-.91l-1.6-3.75a1.82,1.82,0,0,1,.95-2.39Z" transform="translate(-0.38 0.24)"/><path class="cls-6" d="M430.43,418l-13.83,5.69a1.75,1.75,0,0,1-2.28-.93l-1.57-3.65a1.9,1.9,0,0,1,1-2.49L427.43,411a1.73,1.73,0,0,1,2.24.91l1.66,3.88A1.68,1.68,0,0,1,430.43,418Z" transform="translate(-0.38 0.24)"/><path class="cls-6" d="M411.43,426l-13.83,5.69a1.75,1.75,0,0,1-2.28-.93l-1.57-3.65a1.9,1.9,0,0,1,1-2.49L408.43,419a1.73,1.73,0,0,1,2.24.91l1.66,3.88A1.68,1.68,0,0,1,411.43,426Z" transform="translate(-0.38 0.24)"/><path class="cls-6" d="M393.43,434l-13.83,5.69a1.75,1.75,0,0,1-2.28-.93l-1.57-3.65a1.9,1.9,0,0,1,1-2.49L390.43,427a1.73,1.73,0,0,1,2.24.91l1.66,3.88A1.68,1.68,0,0,1,393.43,434Z" transform="translate(-0.38 0.24)"/><path class="cls-6" d="M374.43,442l-13.83,5.69a1.75,1.75,0,0,1-2.28-.93l-1.57-3.65a1.9,1.9,0,0,1,1-2.49L371.43,435a1.73,1.73,0,0,1,2.24.91l1.66,3.88A1.68,1.68,0,0,1,374.43,442Z" transform="translate(-0.38 0.24)"/><path class="cls-6" d="M355.43,450l-13.83,5.69a1.75,1.75,0,0,1-2.28-.93l-1.57-3.65a1.9,1.9,0,0,1,1-2.49L352.43,443a1.73,1.73,0,0,1,2.24.91l1.66,3.88A1.68,1.68,0,0,1,355.43,450Z" transform="translate(-0.38 0.24)"/><path class="cls-6" d="M336.43,458l-13.83,5.69a1.75,1.75,0,0,1-2.28-.93l-1.57-3.65a1.9,1.9,0,0,1,1-2.49L333.43,451a1.73,1.73,0,0,1,2.24.91l1.66,3.88A1.68,1.68,0,0,1,336.43,458Z" transform="translate(-0.38 0.24)"/><path class="cls-6" d="M317.43,466l-13.83,5.69a1.75,1.75,0,0,1-2.28-.93l-1.57-3.65a1.9,1.9,0,0,1,1-2.49L314.43,459a1.73,1.73,0,0,1,2.24.91l1.66,3.88A1.68,1.68,0,0,1,317.43,466Z" transform="translate(-0.38 0.24)"/><path class="cls-6" d="M298.43,474l-13.83,5.69a1.75,1.75,0,0,1-2.28-.93l-1.57-3.65a1.9,1.9,0,0,1,1-2.49L295.43,467a1.73,1.73,0,0,1,2.24.91l1.66,3.88A1.68,1.68,0,0,1,298.43,474Z" transform="translate(-0.38 0.24)"/><path class="cls-6" d="M279.43,482l-13.83,5.69a1.75,1.75,0,0,1-2.28-.93l-1.57-3.65a1.9,1.9,0,0,1,1-2.49L276.43,475a1.73,1.73,0,0,1,2.24.91l1.66,3.88A1.68,1.68,0,0,1,279.43,482Z" transform="translate(-0.38 0.24)"/><path class="cls-6" d="M260.43,490l-13.83,5.69a1.75,1.75,0,0,1-2.28-.93l-1.57-3.65a1.9,1.9,0,0,1,1-2.49L257.43,483a1.73,1.73,0,0,1,2.24.91l1.66,3.88A1.68,1.68,0,0,1,260.43,490Z" transform="translate(-0.38 0.24)"/><path class="cls-6" d="M241.51,497.89l-4.7,1.61h0l-.24,0h0l-12.06-1-.51,0c-.35-.67.06-1.37,1.05-2.1L238.44,491a1.73,1.73,0,0,1,2.22.93l1.72,4A1.47,1.47,0,0,1,241.51,497.89Z" transform="translate(-0.38 0.24)"/><path class="cls-7" d="M404.63,446.72a248.54,248.54,0,0,1-117.92,50.55Z" transform="translate(-0.38 0.24)"/><polyline class="cls-5" points="286.33 497.51 286.32 497.51 286.31 497.52"/><polyline class="cls-4" points="237.63 123.63 287.63 90.63 283.78 87.08"/><path class="cls-8" d="M259,95.88a3.5,3.5,0,0,1-1.58,2.92,3.42,3.42,0,0,1-1.92.58,3.5,3.5,0,0,1-3.5-3.5,3.42,3.42,0,0,1,.58-1.92A3.5,3.5,0,0,1,259,95.88Z" transform="translate(-0.38 0.24)"/><circle class="cls-9" cx="41.13" cy="245.13" r="3.5"/><circle class="cls-9" cx="113.13" cy="196.13" r="3.5"/><path class="cls-9" d="M258,96.88a2.12,2.12,0,0,1-2.5,2.5,3.5,3.5,0,0,1-3.5-3.5,2.12,2.12,0,0,1,2.5-2.5A3.5,3.5,0,0,1,258,96.88Z" transform="translate(-0.38 0.24)"/><g id="Lag_3" data-name="Lag 3"><line class="cls-5" x1="270.63" y1="97.63" x2="205.63" y2="3.63"/><line class="cls-5" x1="262.63" y1="103.63" x2="195.63" y2="5.63"/><line class="cls-5" x1="255.63" y1="109.63" x2="185.63" y2="8.63"/><line class="cls-5" x1="246.63" y1="115.63" x2="175.63" y2="11.63"/><line class="cls-5" x1="166.63" y1="14.63" x2="238.63" y2="122.63"/><line class="cls-5" x1="267.62" y1="99.63" x2="269.62" y2="102.63"/><line class="cls-5" x1="258.62" y1="106.63" x2="260.62" y2="108.63"/><line class="cls-5" x1="156.63" y1="17.63" x2="230.63" y2="128.63"/><line class="cls-5" x1="148.63" y1="21.63" x2="223.63" y2="133.63"/><line class="cls-5" x1="138.63" y1="26.63" x2="215.63" y2="138.63"/><line class="cls-5" x1="130.63" y1="30.63" x2="207.63" y2="143.63"/><line class="cls-5" x1="121.63" y1="35.63" x2="199.63" y2="150.63"/><path class="cls-9" d="M188,146.88a3.52,3.52,0,0,1-3.5,3.5,3.49,3.49,0,0,1-1.35-6.72,3.4,3.4,0,0,1,1.35-.28A3.5,3.5,0,0,1,188,146.88Z" transform="translate(-0.38 0.24)"/><polyline class="cls-5" points="190.63 155.63 190.49 155.41 186.59 149.59"/><polyline class="cls-5" points="182.78 143.91 161.94 112.77 154.12 101.09 113.64 40.63 113.63 40.63"/><line class="cls-5" x1="105.63" y1="46.63" x2="184.63" y2="159.63"/><line class="cls-5" x1="96.63" y1="52.63" x2="174.63" y2="166.63"/><line class="cls-5" x1="89.62" y1="58.63" x2="166.62" y2="171.63"/><line class="cls-5" x1="82.62" y1="64.63" x2="158.62" y2="176.63"/><line class="cls-5" x1="74.62" y1="71.63" x2="149.62" y2="182.63"/><line class="cls-5" x1="141.62" y1="188.63" x2="67.62" y2="79.63"/><line class="cls-5" x1="134.62" y1="193.63" x2="60.62" y2="86.63"/><line class="cls-5" x1="125.63" y1="198.63" x2="55.62" y2="93.63"/><line class="cls-5" x1="118.63" y1="203.62" x2="50.63" y2="99.62"/><line class="cls-5" x1="109.63" y1="209.62" x2="43.63" y2="109.62"/><line class="cls-5" x1="101.63" y1="215.62" x2="36.63" y2="120.62"/><line class="cls-5" x1="94.63" y1="220.62" x2="30.63" y2="130.62"/><line class="cls-5" x1="85.63" y1="225.62" x2="25.63" y2="140.62"/><line class="cls-5" x1="77.63" y1="231.62" x2="20.63" y2="151.62"/><line class="cls-5" x1="69.63" y1="237.62" x2="16.63" y2="161.62"/><line class="cls-5" x1="60.62" y1="242.62" x2="12.63" y2="171.62"/><line class="cls-5" x1="52.62" y1="248.62" x2="8.62" y2="185.62"/><line class="cls-5" x1="5.62" y1="198.62" x2="45.62" y2="253.62"/></g></g><g id="Lag_4" data-name="Lag 4"><polygon class="cls-10" points="112.77 82.3 109.63 95.63 109.44 95.97 108.63 93.63 106.63 93.63 105.63 91.63 102.63 91.63 110.75 82.03 112.77 82.3"/><polygon class="cls-6" points="108.63 93.63 109.44 95.97 29.63 242.63 26.63 242.63 24.63 241.63 23.63 238.63 102.63 91.63 105.63 91.63 106.63 93.63 108.63 93.63"/><polygon class="cls-6" points="113.63 78.63 112.77 82.3 110.75 82.03 113.63 78.63"/><polyline class="cls-5" points="29.63 242.63 28.63 240.63 26.63 239.63 23.63 238.63"/><line class="cls-5" x1="27.5" y1="240.06" x2="106.63" y2="93.62"/><polyline class="cls-5" points="33.1 221.49 33.63 223.63 36.63 226.63 38.23 226.82"/><polyline class="cls-5" points="30.29 226.22 30.63 228.63 33.63 231.63 35.4 232.01"/><path class="cls-11" d="M74,73.38v33l-8.64,1-8.44,1-7.92.95v-7.51Q54.79,94,61.16,86.62q5.9-6.84,12.28-13.24Z" transform="translate(-0.38 0.24)"/><polygon class="cls-12" points="77.63 110.63 73.63 106.63 73.63 73.63 77.63 110.63"/><polygon class="cls-3" points="74.97 107.97 68.63 116.63 55.63 117.63 48.63 109.63 56.55 108.67 64.98 107.67 73.63 106.63 74.97 107.97"/><polygon class="cls-13" points="76.25 109.25 75.63 116.63 68.63 123.63 55.63 124.63 49.63 119.63 48.63 109.63 55.63 117.63 68.63 116.63 74.97 107.97 76.25 109.25"/><path class="cls-6" d="M184,66.38l-21.35,45.41-4.45,9.47-1.2,1.12-36,78a9.58,9.58,0,0,1-8-3l35-79-1-2,27-56C179.92,62.43,182.72,64.29,184,66.38Z" transform="translate(-0.38 0.24)"/><path class="cls-5" d="M157,122.38a16.76,16.76,0,0,0-9-4" transform="translate(-0.38 0.24)"/><polygon class="cls-6" points="185.63 68.63 165.63 111.63 162.28 112.03 183.63 66.63 185.63 68.63"/></g></svg>
