<?xml version="1.0" encoding="utf-8"?>
<!-- Generator: Adobe Illustrator 22.0.1, SVG Export Plug-In . SVG Version: 6.00 Build 0)  -->
<svg version="1.1" id="Lag_1" xmlns="http://www.w3.org/2000/svg" xmlns:xlink="http://www.w3.org/1999/xlink" x="0px" y="0px"
	 viewBox="0 0 500 500" style="enable-background:new 0 0 500 500;" xml:space="preserve">
<style type="text/css">
	.st0{fill:#FFFBBE;stroke:#000000;stroke-width:0.5;stroke-miterlimit:10;}
	.st1{fill:#BFBC8F;stroke:#000000;stroke-width:0.5;stroke-miterlimit:10;}
	.st2{fill:#FFFDDE;stroke:#000000;stroke-width:0.5;stroke-miterlimit:10;}
	.st3{fill:none;stroke:#000000;stroke-width:0.5;stroke-miterlimit:10;}
</style>
<path class="st0" d="M478.9,169c-0.2,1.3-0.8,2.4-1.8,3.3c-1.1,1-2.6,1.7-4.5,1.7H21.2c-4,0-6.5-3.1-6.3-6.1c0-1,0.4-2.1,1.1-3
	c0,0,0,0,0,0c0.4-0.5,0.8-0.9,1.3-1.3L247,3.5l229.4,160C478.5,164.9,479.2,167,478.9,169z"/>
<path class="st0" d="M477.1,172.2c-0.4,0.7-0.9,1.3-1.6,1.8L246,348.5L16.4,173.8c-1.7-1.3-2.5-3.1-2.5-4.9c0-1.8,0.8-3.6,2.1-4.9
	c0,0,0,0,0,0c1.1-0.9,2.5-1.5,4.2-1.5h451.4c3,0,5.1,1.8,6,4.1C478.2,168.4,478.1,170.4,477.1,172.2z"/>
<path class="st1" d="M478.9,168c-0.2,1.4-0.8,2.7-1.8,3.6c-0.4,0.7-0.9,1.3-1.6,1.8L246,348L16.4,173.3c-1.7-1.3-2.5-3.1-2.5-4.9
	c0.3-0.6,0.6-1.1,1-1.6c2.2-2.9,5.7-4.8,9.6-4.8h444c3.6,0,6.8,1.6,9,4.1C478,166.7,478.5,167.3,478.9,168z"/>
<rect x="43" y="63" class="st2" width="405" height="357"/>
<path class="st0" d="M480.5,174.5v306c0,6.6-5.4,12-12,12h-444c-6.6,0-12-5.4-12-12v-306c0-2,0.5-3.9,1.4-5.6c0,1.8,0.8,3.6,2.5,4.9
	L247,331l228.4-157c0.7-0.5,1.2-1.1,1.6-1.8c1-1,1.6-2.3,1.8-3.6C479.9,170.3,480.5,172.3,480.5,174.5z"/>
<line class="st3" x1="67" y1="98" x2="415" y2="99"/>
<line class="st3" x1="67.5" y1="124" x2="415.5" y2="125"/>
<line class="st3" x1="67.5" y1="150" x2="415.5" y2="151"/>
<line class="st3" x1="67.5" y1="176" x2="415.5" y2="177"/>
<line class="st3" x1="66.5" y1="202" x2="414.5" y2="203"/>
<line class="st3" x1="99" y1="230" x2="393" y2="231"/>
<line class="st3" x1="134" y1="254" x2="358" y2="255"/>
<line class="st3" x1="170" y1="278" x2="323" y2="279"/>
<line class="st3" x1="205" y1="302" x2="289" y2="302"/>
<line class="st3" x1="241" y1="327" x2="253" y2="327"/>
</svg>
