<svg xmlns="http://www.w3.org/2000/svg" xmlns:xlink="http://www.w3.org/1999/xlink" viewBox="0 0 513 531"><defs><style>.cls-1,.cls-2,.cls-3{stroke:#fff;stroke-miterlimit:10;}.cls-1{fill:url(#linear-gradient);}.cls-2,.cls-3{fill:none;}.cls-2{opacity:0.4;}.cls-3,.cls-4{font-size:250px;font-family:FranklinGothic-Demi, Franklin Gothic Demi;}.cls-3{stroke-width:10px;}.cls-4{fill:#fff;}</style><linearGradient id="linear-gradient" x1="256.5" y1="0.5" x2="256.5" y2="512.5" gradientUnits="userSpaceOnUse"><stop offset="0" stop-color="#d7b998"/><stop offset="1" stop-color="#8e674d"/></linearGradient></defs><title>Nyt_logo_OPOS</title><g id="Layer_2" data-name="Layer 2"><g id="Layer_3" data-name="Layer 3"><rect class="cls-1" x="0.5" y="0.5" width="512" height="512" rx="120" ry="120"/><line class="cls-2" x1="0.5" y1="135.5" x2="135.5" y2="0.5"/><line class="cls-2" x1="0.5" y1="210.5" x2="210.5" y2="0.5"/><line class="cls-2" x1="0.5" y1="255.5" x2="255.5" y2="0.5"/><line class="cls-2" x1="9.5" y1="437.5" x2="437.5" y2="9.5"/><line class="cls-2" x1="50" y1="489" x2="489" y2="50"/><line class="cls-2" x1="84.5" y1="506.5" x2="506.5" y2="84.5"/><line class="cls-2" x1="225.5" y1="511.5" x2="511.5" y2="225.5"/><line class="cls-2" x1="372.5" y1="511.5" x2="511.5" y2="372.5"/><line class="cls-2" x1="422.5" y1="507.5" x2="507.5" y2="422.5"/><line class="cls-2" x1="357" y1="90" x2="511.5" y2="244.5"/><line class="cls-2" x1="109.5" y1="337.5" x2="0.5" y2="228.5"/></g><g id="Layer_4" data-name="Layer 4"><text class="cls-3" transform="translate(64.56 226.34)">O</text><text class="cls-4" transform="translate(301.56 454.34)">S</text><text class="cls-3" transform="translate(290.56 222.34)">P</text><text class="cls-4" transform="translate(63.56 454.34)">O</text></g></g></svg>
